<svg width="1000" height="1000" viewBox="0 0 1000 1000" fill="none" xmlns="http://www.w3.org/2000/svg">
<path d="M516.02 263.73C415.937 408.976 333.975 528.295 333.975 528.853C333.975 529.689 345.126 539.447 358.508 551.156L383.041 572.064L464.167 478.951C509.051 427.655 546.129 386.673 546.687 387.788C547.523 389.182 553.377 412.321 559.789 439.642C568.432 475.884 572.613 488.987 575.401 487.872C582.928 484.805 696.951 409.812 698.066 407.025C698.624 405.352 698.902 313.074 698.624 202.118L697.787 0.000366211L516.02 263.73Z" fill="white"/>
<path d="M696.672 423.752C539.717 525.787 409.804 608.586 408.131 608.028C406.458 607.192 362.132 569.556 309.441 524.114C256.751 478.673 213.261 441.594 212.704 441.594C212.146 441.594 214.655 449.958 218.558 460.273C222.461 470.867 252.012 550.041 284.351 636.743C316.411 723.445 343.174 794.534 343.732 795.092C344.568 796.207 958.171 263.73 976.571 246.167C981.031 241.706 984.098 238.082 983.54 238.082C982.704 238.361 853.627 321.717 696.672 423.752Z" fill="white"/>
<path d="M649 546.698C622.237 569.837 599.934 590.467 599.377 592.14C598.819 593.812 620.564 686.368 647.885 797.603L697.787 1000L698.624 875.384C698.902 807.082 698.902 695.568 698.624 627.545L697.787 504.044L649 546.698Z" fill="white"/>
<path d="M163.917 774.182C30.1005 969.052 11.7007 995.815 16.7188 990.797C19.2279 988.567 77.7725 921.38 147.19 841.648C216.607 761.915 276.824 693.056 280.727 688.874L287.697 681.068L279.612 657.093C274.872 643.99 270.133 631.445 268.46 629.772C266.509 626.984 238.352 665.735 163.917 774.182Z" fill="white"/>
</svg>
